<?xml version="1.0" encoding="UTF-8" standalone="no"?>
<!-- Created with Inkscape (http://www.inkscape.org/) -->

<svg
   width="16"
   height="16"
   viewBox="0 0 16 16"
   version="1.1"
   id="svg1"
   inkscape:version="1.3.2 (091e20e, 2023-11-25, custom)"
   sodipodi:docname="logo.svg"
   inkscape:export-filename="favicon.png"
   inkscape:export-xdpi="192"
   inkscape:export-ydpi="192"
   xmlns:inkscape="http://www.inkscape.org/namespaces/inkscape"
   xmlns:sodipodi="http://sodipodi.sourceforge.net/DTD/sodipodi-0.dtd"
   xmlns="http://www.w3.org/2000/svg"
   xmlns:svg="http://www.w3.org/2000/svg">
  <sodipodi:namedview
     id="namedview1"
     pagecolor="#ffffff"
     bordercolor="#ff0000"
     borderopacity="1"
     inkscape:showpageshadow="2"
     inkscape:pageopacity="0.0"
     inkscape:pagecheckerboard="true"
     inkscape:deskcolor="#d1d1d1"
     inkscape:document-units="px"
     labelstyle="default"
     inkscape:zoom="18.988555"
     inkscape:cx="5.7666315"
     inkscape:cy="6.714571"
     inkscape:window-width="1280"
     inkscape:window-height="667"
     inkscape:window-x="-8"
     inkscape:window-y="-8"
     inkscape:window-maximized="1"
     inkscape:current-layer="g2" />
  <defs
     id="defs1" />
  <g
     inkscape:label="Capa 1"
     inkscape:groupmode="layer"
     id="layer1">
    <g
       id="g2"
       transform="translate(0,1.2499997)">
      <rect
         style="fill:#000000;stroke:none;stroke-width:0.01;stroke-linecap:square"
         id="rect5"
         width="19.274769"
         height="19.906729"
         x="-0.73728621"
         y="-2.6719089" />
      <path
         id="rect1"
         style="fill:#ffffff;stroke:#000000;stroke-width:0.00997026;stroke-linecap:square"
         d="M 8,1.3400246 A 6.495015,6.495015 0 0 0 1.5049851,7.8350395 h 2.1700791 v 2.163313 L 5.8366864,12.159976 H 8 10.163313 l 2.161623,-2.1616235 v -2.163313 h 2.170079 A 6.495015,6.495015 0 0 0 8,1.3400246 Z M 5.8349951,7.8350395 a 1.299003,1.299003 0 0 1 1.299003,1.299003 1.299003,1.299003 0 0 1 -1.299003,1.2990035 1.299003,1.299003 0 0 1 -1.2990032,-1.2990035 1.299003,1.299003 0 0 1 1.2990032,-1.299003 z m 4.3300099,0 a 1.299003,1.299003 0 0 1 1.299003,1.299003 1.299003,1.299003 0 0 1 -1.299003,1.2990035 1.299003,1.299003 0 0 1 -1.299003,-1.2990035 1.299003,1.299003 0 0 1 1.299003,-1.299003 z" />
    </g>
    <g
       id="g5"
       transform="translate(-17.06291,-5.4909029)">
      <path
         id="path3"
         style="stroke:#000000;stroke-width:0.011513;stroke-linecap:square"
         d="m 3.0057564,3.0057564 h 4.9942438 4.9942438 v 4.9942438 2.4971218 l -2.497122,2.497122 H 8.0000002 5.5028783 L 3.0057564,10.497122 V 8.0000002 Z"
         sodipodi:nodetypes="ccccccccccc" />
      <path
         id="path4"
         style="fill:#000000;stroke:none;stroke-width:0.0173675;stroke-linecap:square"
         d="M 8,0.5 A 7.5,7.5 0 0 0 0.5,8 h 15 A 7.5,7.5 0 0 0 8,0.5 Z" />
      <circle
         style="fill:#ffffff;stroke:none;stroke-width:0.00839184;stroke-linecap:square"
         id="circle4"
         cx="5.5"
         cy="9.5"
         r="1.5" />
      <circle
         style="fill:#ffffff;stroke:none;stroke-width:0.00839184;stroke-linecap:square"
         id="circle5"
         cx="10.5"
         cy="9.5"
         r="1.5" />
    </g>
  </g>
</svg>
